# Blender 3.6.0
# www.blender.org
mtllib terrain_roadCorner.mtl
o terrain_roadCorner
v 0.000000 0.000000 0.250000
v -0.097895 0.000000 0.256416
v 0.000000 0.000000 0.000000
v -1.000000 0.000000 0.000000
v -0.194114 0.000000 0.275556
v -0.287013 0.000000 0.307090
v -0.375000 0.000000 0.350481
v -0.456571 0.000000 0.404985
v -0.530330 0.000000 0.469670
v -0.595015 0.000000 0.543429
v -0.649519 0.000000 0.625000
v -0.692910 0.000000 0.712987
v -0.724444 0.000000 0.805886
v -0.743584 0.000000 0.902105
v -0.750000 0.000000 1.000000
v -1.000000 0.000000 1.000000
v 0.000000 0.000000 0.750000
v 0.000000 0.000000 1.000000
v -0.032632 0.000000 0.752139
v -0.250000 0.000000 1.000000
v -0.064705 0.000000 0.758519
v -0.095671 0.000000 0.769030
v -0.125000 0.000000 0.783494
v -0.152190 0.000000 0.801662
v -0.176777 0.000000 0.823223
v -0.198338 0.000000 0.847810
v -0.216506 0.000000 0.875000
v -0.230970 0.000000 0.904329
v -0.241481 0.000000 0.935295
v -0.247861 0.000000 0.967368
v 0.000000 0.000000 0.625000
v -0.048947 0.000000 0.628208
v 0.000000 0.000000 0.375000
v -0.081579 0.000000 0.380347
v -0.097057 0.000000 0.637778
v -0.161762 0.000000 0.396296
v -0.143506 0.000000 0.653545
v -0.187500 0.000000 0.675241
v -0.239177 0.000000 0.422575
v -0.228286 0.000000 0.702492
v -0.265165 0.000000 0.734835
v -0.312500 0.000000 0.458734
v -0.297507 0.000000 0.771714
v -0.324760 0.000000 0.812500
v -0.380476 0.000000 0.504154
v -0.346455 0.000000 0.856494
v -0.362222 0.000000 0.902943
v -0.371792 0.000000 0.951053
v -0.375000 0.000000 1.000000
v -0.625000 0.000000 1.000000
v -0.441942 0.000000 0.558058
v -0.495846 0.000000 0.619524
v -0.541266 0.000000 0.687500
v -0.577425 0.000000 0.760823
v -0.603703 0.000000 0.838238
v -0.619653 0.000000 0.918421
vn -0.0000 1.0000 -0.0000
vt 0.000000 0.000000
vt 3.854120 10.095130
vt -0.000000 9.842520
vt 39.370079 0.000000
vt 7.642294 10.848650
vt 11.299710 12.090170
vt 14.763780 13.798460
vt 17.975241 15.944290
vt 20.879141 18.490940
vt 23.425791 21.394840
vt 25.571621 24.606300
vt 27.279909 28.070370
vt 28.521429 31.727779
vt 29.274950 35.515961
vt 29.527559 39.370079
vt 39.370079 39.370079
vt 1.284706 29.611759
vt 0.000000 39.370079
vt -0.000000 29.527559
vt 9.842520 39.370079
vt 2.547431 29.862940
vt 3.766569 30.276779
vt 4.921260 30.846210
vt 5.991746 31.561480
vt 6.959713 32.410370
vt 7.808596 33.378330
vt 8.523872 34.448818
vt 9.093303 35.603512
vt 9.507144 36.822651
vt 9.758316 38.085369
vt -0.000000 14.763780
vt 1.927060 24.732599
vt -0.000000 24.606300
vt 3.211766 14.974290
vt 3.821147 25.109360
vt 6.368579 15.602220
vt 5.649854 25.730129
vt 7.381890 26.584270
vt 9.416423 16.636820
vt 8.987619 27.657181
vt 10.439570 28.930510
vt 12.303150 18.060400
vt 11.712890 30.382460
vt 12.785810 31.988190
vt 14.979370 19.848591
vt 13.639950 33.720230
vt 14.260720 35.548931
vt 14.637470 37.443020
vt 14.763780 39.370079
vt 24.606300 39.370079
vt 17.399281 21.970800
vt 19.521490 24.390711
vt 21.309681 27.066931
vt 22.733259 29.953659
vt 23.767860 33.001499
vt 24.395790 36.158310
s 0
usemtl rock
f 3/1/1 2/2/1 1/3/1
f 2/2/1 3/1/1 4/4/1
f 2/2/1 4/4/1 5/5/1
f 5/5/1 4/4/1 6/6/1
f 6/6/1 4/4/1 7/7/1
f 7/7/1 4/4/1 8/8/1
f 8/8/1 4/4/1 9/9/1
f 9/9/1 4/4/1 10/10/1
f 10/10/1 4/4/1 11/11/1
f 11/11/1 4/4/1 12/12/1
f 12/12/1 4/4/1 13/13/1
f 13/13/1 4/4/1 14/14/1
f 14/14/1 4/4/1 15/15/1
f 15/15/1 4/4/1 16/16/1
f 19/17/1 18/18/1 17/19/1
f 18/18/1 19/17/1 20/20/1
f 20/20/1 19/17/1 21/21/1
f 20/20/1 21/21/1 22/22/1
f 20/20/1 22/22/1 23/23/1
f 20/20/1 23/23/1 24/24/1
f 20/20/1 24/24/1 25/25/1
f 20/20/1 25/25/1 26/26/1
f 20/20/1 26/26/1 27/27/1
f 20/20/1 27/27/1 28/28/1
f 20/20/1 28/28/1 29/29/1
f 20/20/1 29/29/1 30/30/1
f 33/31/1 32/32/1 31/33/1
f 32/32/1 33/31/1 34/34/1
f 32/32/1 34/34/1 35/35/1
f 35/35/1 34/34/1 36/36/1
f 35/35/1 36/36/1 37/37/1
f 37/37/1 36/36/1 38/38/1
f 38/38/1 36/36/1 39/39/1
f 38/38/1 39/39/1 40/40/1
f 40/40/1 39/39/1 41/41/1
f 41/41/1 39/39/1 42/42/1
f 41/41/1 42/42/1 43/43/1
f 43/43/1 42/42/1 44/44/1
f 44/44/1 42/42/1 45/45/1
f 44/44/1 45/45/1 46/46/1
f 46/46/1 45/45/1 47/47/1
f 47/47/1 45/45/1 48/48/1
f 48/48/1 45/45/1 49/49/1
f 49/49/1 45/45/1 50/50/1
f 50/50/1 45/45/1 51/51/1
f 50/50/1 51/51/1 52/52/1
f 50/50/1 52/52/1 53/53/1
f 50/50/1 53/53/1 54/54/1
f 50/50/1 54/54/1 55/55/1
f 50/50/1 55/55/1 56/56/1
usemtl rockTrack
f 1/3/1 34/34/1 33/31/1
f 34/34/1 1/3/1 2/2/1
f 34/34/1 2/2/1 36/36/1
f 36/36/1 2/2/1 5/5/1
f 36/36/1 5/5/1 39/39/1
f 39/39/1 5/5/1 6/6/1
f 39/39/1 6/6/1 42/42/1
f 42/42/1 6/6/1 7/7/1
f 42/42/1 7/7/1 45/45/1
f 45/45/1 7/7/1 8/8/1
f 45/45/1 8/8/1 51/51/1
f 51/51/1 8/8/1 52/52/1
f 52/52/1 8/8/1 9/9/1
f 52/52/1 9/9/1 53/53/1
f 53/53/1 9/9/1 10/10/1
f 53/53/1 10/10/1 54/54/1
f 54/54/1 10/10/1 55/55/1
f 55/55/1 10/10/1 11/11/1
f 55/55/1 11/11/1 56/56/1
f 56/56/1 11/11/1 50/50/1
f 50/50/1 11/11/1 15/15/1
f 15/15/1 11/11/1 12/12/1
f 15/15/1 12/12/1 13/13/1
f 15/15/1 13/13/1 14/14/1
f 31/33/1 19/17/1 17/19/1
f 19/17/1 31/33/1 32/32/1
f 19/17/1 32/32/1 21/21/1
f 21/21/1 32/32/1 35/35/1
f 21/21/1 35/35/1 22/22/1
f 22/22/1 35/35/1 23/23/1
f 23/23/1 35/35/1 37/37/1
f 23/23/1 37/37/1 24/24/1
f 24/24/1 37/37/1 38/38/1
f 24/24/1 38/38/1 25/25/1
f 25/25/1 38/38/1 26/26/1
f 26/26/1 38/38/1 40/40/1
f 26/26/1 40/40/1 27/27/1
f 27/27/1 40/40/1 28/28/1
f 28/28/1 40/40/1 41/41/1
f 28/28/1 41/41/1 29/29/1
f 29/29/1 41/41/1 30/30/1
f 30/30/1 41/41/1 20/20/1
f 20/20/1 41/41/1 49/49/1
f 49/49/1 41/41/1 43/43/1
f 49/49/1 43/43/1 44/44/1
f 49/49/1 44/44/1 46/46/1
f 49/49/1 46/46/1 47/47/1
f 49/49/1 47/47/1 48/48/1
